<svg width="140" xmlns="http://www.w3.org/2000/svg" height="140" id="screenshot-8dbb55f2-fd12-80b2-8006-9992d0cf78d7" viewBox="0 0 140 140" xmlns:xlink="http://www.w3.org/1999/xlink" fill="none" version="1.1"><g id="shape-8dbb55f2-fd12-80b2-8006-9992d0cf78d7"><g class="frame-container-wrapper"><g class="frame-container-blur"><g class="frame-container-shadows"><g fill="none"><g class="fills" id="fills-8dbb55f2-fd12-80b2-8006-9992d0cf78d7"><rect rx="0" ry="0" x="0" y="0" width="140" height="140" transform="matrix(1.000000, 0.000000, 0.000000, 1.000000, 0.000000, 0.000000)" class="frame-background"/></g><g class="frame-children"><g id="shape-8dbb55f2-fd12-80b2-8006-9991e3962fc4" xml:space="preserve" rx="0" ry="0" style="fill: rgb(0, 0, 0);"><g id="shape-8dbb55f2-fd12-80b2-8006-9991e397a502" style="display: none;"><g class="fills" id="fills-8dbb55f2-fd12-80b2-8006-9991e397a502"><rect width="140" height="140" x="0" transform="matrix(1.000000, 0.000000, 0.000000, 1.000000, 0.000000, 0.000000)" style="fill: none;" ry="0" fill="none" rx="0" y="0"/></g></g><g id="shape-8dbb55f2-fd12-80b2-8006-9991e39ac9c3"><g class="fills" id="fills-8dbb55f2-fd12-80b2-8006-9991e39ac9c3"><path d="M42.957275390625,60.71630859375C42.953125,61.08740234375,42.956298828125,61.089111328125,42.890625,61.20458984375C41.9375,62.887939453125,41.349609375,64.716064453125,40.85693359375,66.568603515625C40.4404296875,68.135498046875,40.23779296875,69.748046875,40.097412109375,71.3662109375C39.959228515625,72.9599609375,39.887939453125,74.552490234375,40.053955078125,76.147705078125C40.2236328125,77.77587890625,40.519287109375,79.383056640625,40.843017578125,80.98681640625C41.33056640625,83.403564453125,42.11572265625,85.6982421875,43.5400390625,87.735595703125C44.258544921875,88.763427734375,45.02197265625,89.740478515625,46.080810546875,90.47412109375C48.173828125,91.924560546875,50.605712890625,92.215576171875,53.012939453125,92.589599609375C54.5869140625,92.833984375,56.1865234375,92.881103515625,57.761962890625,93.131591796875C59.5263671875,93.411865234375,61.076904296875,94.07275390625,62.223388671875,95.515380859375C62.7314453125,96.15478515625,63.270751953125,96.764404296875,63.75341796875,97.4296875C64.705810546875,98.742919921875,65.889892578125,99.832275390625,67.292236328125,100.678955078125C69.489501953125,102.006103515625,71.726318359375,102.18896484375,74.037353515625,100.996826171875C75.564208984375,100.208984375,76.802734375,99.07470703125,77.8876953125,97.767333984375C78.3798828125,97.174072265625,78.823974609375,96.53857421875,79.28955078125,95.923583984375C80.6328125,94.14892578125,82.445556640625,93.29833984375,84.592529296875,93.050048828125C87.03125,92.768798828125,89.479736328125,92.58349609375,91.890380859375,92.068115234375C93.833984375,91.653076171875,95.579345703125,90.896484375,96.97998046875,89.46728515625C97.75439453125,88.67724609375,98.373779296875,87.759521484375,98.9404296875,86.806640625C100.020263671875,84.991455078125,100.619384765625,83.01025390625,101.04736328125,80.95947265625C101.57470703125,78.431884765625,101.980224609375,75.896728515625,101.904052734375,73.300048828125C101.853271484375,71.569091796875,101.654541015625,69.85888671875,101.359375,68.1552734375C100.942626953125,65.75048828125,100.157470703125,63.471435546875,99.0517578125,61.2998046875C98.97509765625,61.1494140625,98.84619140625,61.0166015625,98.9423828125,60.755126953125C99.525634765625,61.337890625,99.85302734375,62.032958984375,100.243408203125,62.685791015625C100.2822265625,62.653076171875,100.318603515625,62.637939453125,100.324951171875,62.614990234375C100.371337890625,62.443359375,100.419189453125,62.271484375,100.453125,62.096923828125C101.076171875,58.880859375,101.239013671875,55.620849609375,101.343994140625,52.35888671875C101.42529296875,49.8349609375,101.1689453125,47.322265625,100.8828125,44.819580078125C100.602294921875,42.364990234375,100.025146484375,39.958984375,99.520263671875,37.542724609375C98.919677734375,34.668701171875,98.017822265625,31.88037109375,97.13671875,29.0859375C96.08935546875,25.7626953125,95.044921875,22.438232421875,93.558837890625,19.275390625C93.1943359375,18.499267578125,92.831787109375,17.720703125,92.34814453125,17.024658203125C92.18408203125,17.058349609375,92.14599609375,17.162841796875,92.086669921875,17.244873046875C91.07177734375,18.6494140625,90.238037109375,20.1689453125,89.441162109375,21.696533203125C87.61669921875,25.19384765625,85.854248046875,28.722900390625,84.290283203125,32.3486328125C82.79345703125,35.81884765625,81.225830078125,39.259033203125,80.147216796875,42.892822265625C79.876708984375,43.804443359375,79.592041015625,44.71142578125,79.306396484375,45.6181640625C79.24072265625,45.825927734375,79.160888671875,46.119384765625,78.876953125,46.00390625C78.363525390625,45.79541015625,77.809814453125,45.753173828125,77.296875,45.555908203125C77.148681640625,45.4990234375,76.98095703125,45.489501953125,76.925537109375,45.251220703125C77.610107421875,45.219482421875,78.24462890625,45.50634765625,78.915283203125,45.445556640625C79.0263671875,44.984130859375,79.1328125,44.5419921875,79.256103515625,44.02978515625C73.6826171875,42.589111328125,68.171142578125,42.591064453125,62.623291015625,44.033447265625C62.7294921875,44.453857421875,62.837646484375,44.779296875,62.8876953125,45.113525390625C62.93017578125,45.398681640625,63.044677734375,45.5107421875,63.327880859375,45.448974609375C63.4580078125,45.420654296875,63.591064453125,45.390869140625,63.72314453125,45.389892578125C64.13232421875,45.387451171875,64.53125,45.1669921875,64.98046875,45.2880859375C64.839111328125,45.549560546875,64.609130859375,45.554443359375,64.421630859375,45.612548828125C64.068359375,45.722412109375,63.70458984375,45.795654296875,63.346923828125,45.891357421875C62.722412109375,46.058837890625,62.71337890625,46.064208984375,62.513671875,45.40966796875C61.910888671875,43.43359375,61.35546875,41.439208984375,60.59619140625,39.517578125C57.91357421875,32.727783203125,54.9228515625,26.080078125,51.3271484375,19.716796875C50.795654296875,18.77587890625,50.291015625,17.81640625,49.579345703125,16.967041015625C49.060791015625,17.712890625,48.6845703125,18.50732421875,48.313232421875,19.30322265625C46.436767578125,23.3251953125,45.253173828125,27.592529296875,43.894287109375,31.797607421875C42.936279296875,34.760986328125,42.302734375,37.803466796875,41.668212890625,40.84619140625C41.037353515625,43.8720703125,40.68505859375,46.9345703125,40.591552734375,50.018798828125C40.482666015625,53.616455078125,40.668212890625,57.204833984375,41.212646484375,60.767333984375C41.310546875,61.40966796875,41.382568359375,62.0625,41.614990234375,62.750732421875C42.021484375,62.02197265625,42.38037109375,61.359619140625,42.957275390625,60.71630859375Z" style="fill: rgb(0, 0, 0); fill-opacity: 1;"/></g></g><g id="shape-8dbb55f2-fd12-80b2-8006-9991e39b4eb9"><g class="fills" id="fills-8dbb55f2-fd12-80b2-8006-9991e39b4eb9"><path d="M102.445556640625,71.333251953125C102.220458984375,69.119140625,101.886962890625,66.9296875,101.071533203125,64.849609375C100.75048828125,64.0302734375,100.540771484375,63.258056640625,100.9853515625,62.43505859375C100.998779296875,62.410400390625,100.99365234375,62.376220703125,101,62.346923828125C101.70703125,59.024169921875,101.8662109375,55.6474609375,101.977783203125,52.267333984375C102.02197265625,50.923828125,101.9111328125,49.584228515625,101.81396484375,48.243896484375C101.6845703125,46.461181640625,101.575927734375,44.674072265625,101.23876953125,42.918701171875C100.484619140625,38.99462890625,99.76220703125,35.06103515625,98.487548828125,31.25830078125C97.296142578125,27.705322265625,96.301025390625,24.084228515625,94.80322265625,20.63818359375C94.239501953125,19.34130859375,93.66064453125,18.04833984375,92.8759765625,16.86376953125C92.521484375,16.3291015625,92.224609375,16.3388671875,91.842529296875,16.840576171875C90.89111328125,18.09033203125,90.118408203125,19.455810546875,89.36181640625,20.821044921875C87.506103515625,24.168212890625,85.804931640625,27.59716796875,84.241943359375,31.0908203125C82.85009765625,34.2021484375,81.41357421875,37.29736328125,80.339111328125,40.5400390625C80.017822265625,41.509521484375,79.724609375,42.48828125,79.42919921875,43.4296875C73.758544921875,41.93994140625,68.133056640625,41.938720703125,62.464599609375,43.42919921875C62.43505859375,43.338134765625,62.387451171875,43.199951171875,62.344970703125,43.060302734375C61.825439453125,41.35205078125,61.30517578125,39.642333984375,60.627197265625,37.989501953125C58.55859375,32.945068359375,56.299072265625,27.988525390625,53.77734375,23.151611328125C52.64697265625,20.98291015625,51.46044921875,18.853271484375,50.046142578125,16.855712890625C49.666748046875,16.31982421875,49.36474609375,16.3310546875,48.994873046875,16.88623046875C48.47265625,17.669921875,48.052978515625,18.5107421875,47.6650390625,19.365478515625C45.362548828125,24.435546875,43.760498046875,29.75341796875,42.320068359375,35.1083984375C41.298583984375,38.906005859375,40.491455078125,42.76953125,40.19775390625,46.7177734375C40.062744140625,48.53271484375,39.904541015625,50.343505859375,39.939697265625,52.164794921875C39.987060546875,54.60986328125,40.057373046875,57.0546875,40.41015625,59.478515625C40.600341796875,60.78466796875,40.712890625,62.111083984375,41.207275390625,63.3564453125C41.258056640625,63.48388671875,41.27294921875,63.600341796875,41.21630859375,63.7392578125C40.362060546875,65.846435546875,39.820556640625,68.031494140625,39.549560546875,70.290283203125C39.36279296875,71.848876953125,39.260986328125,73.409912109375,39.30322265625,74.977294921875C39.35546875,76.90283203125,39.677734375,78.79443359375,40.0400390625,80.68310546875C40.641357421875,83.817138671875,41.74072265625,86.7119140625,43.802978515625,89.2099609375C45.232421875,90.94140625,47.004150390625,92.10009765625,49.154541015625,92.656005859375C51.656005859375,93.302734375,54.225341796875,93.532958984375,56.79248046875,93.757080078125C57.729248046875,93.8388671875,58.655029296875,93.998779296875,59.534423828125,94.33837890625C60.775634765625,94.81787109375,61.5849609375,95.790771484375,62.306640625,96.850830078125C63.600341796875,98.75,65.131591796875,100.3974609375,67.196533203125,101.48193359375C69.265625,102.568115234375,71.422607421875,102.657958984375,73.607177734375,101.9501953125C74.941162109375,101.517822265625,76.07763671875,100.718505859375,77.10888671875,99.763671875C78.179931640625,98.77197265625,79.041748046875,97.6181640625,79.879150390625,96.43212890625C80.565673828125,95.459716796875,81.401611328125,94.62548828125,82.582275390625,94.2490234375C83.364013671875,94,84.16845703125,93.845947265625,84.984130859375,93.7607421875C86.983154296875,93.552001953125,88.98779296875,93.413330078125,90.969970703125,93.042236328125C92.925048828125,92.67626953125,94.802490234375,92.144287109375,96.38330078125,90.8798828125C98.2919921875,89.353271484375,99.681884765625,87.3974609375,100.533935546875,85.142578125C102.213134765625,80.699951171875,102.929931640625,76.095703125,102.445556640625,71.333251953125ZM101.04736328125,80.959716796875C100.619384765625,83.0107421875,100.020263671875,84.991943359375,98.940185546875,86.806884765625C98.37353515625,87.759765625,97.754150390625,88.677490234375,96.979736328125,89.467529296875C95.5791015625,90.896728515625,93.833740234375,91.6533203125,91.89013671875,92.068359375C89.479248046875,92.583740234375,87.031005859375,92.768798828125,84.59228515625,93.050537109375C82.445068359375,93.29833984375,80.632080078125,94.149169921875,79.289306640625,95.923828125C78.82373046875,96.5390625,78.379638671875,97.17431640625,77.88720703125,97.767578125C76.802490234375,99.074951171875,75.56396484375,100.20947265625,74.037109375,100.9970703125C71.725830078125,102.189697265625,69.4892578125,102.00634765625,67.2919921875,100.679443359375C65.8896484375,99.83251953125,64.70556640625,98.7431640625,63.753173828125,97.429931640625C63.2705078125,96.764404296875,62.731201171875,96.15478515625,62.22314453125,95.515625C61.07666015625,94.072998046875,59.526123046875,93.412353515625,57.76171875,93.1318359375C56.186279296875,92.881591796875,54.58642578125,92.83447265625,53.0126953125,92.590087890625C50.60546875,92.216064453125,48.173583984375,91.92529296875,46.080322265625,90.474609375C45.021484375,89.74072265625,44.25830078125,88.763671875,43.539794921875,87.736083984375C42.115478515625,85.698974609375,41.33056640625,83.404296875,40.8427734375,80.987548828125C40.51904296875,79.383544921875,40.223388671875,77.7763671875,40.0537109375,76.148193359375C39.887451171875,74.552734375,39.958984375,72.96044921875,40.09716796875,71.36669921875C40.2373046875,69.74853515625,40.43994140625,68.135986328125,40.856689453125,66.569091796875C41.349365234375,64.716796875,41.937255859375,62.888916015625,42.890380859375,61.205322265625C42.9560546875,61.089599609375,42.952880859375,61.087890625,42.95703125,60.716796875C42.38037109375,61.360107421875,42.021484375,62.0224609375,41.614990234375,62.751708984375C41.382568359375,62.0634765625,41.31103515625,61.41015625,41.212646484375,60.76806640625C40.668212890625,57.205322265625,40.482666015625,53.616943359375,40.591552734375,50.019775390625C40.68505859375,46.935302734375,41.037353515625,43.872802734375,41.668212890625,40.846923828125C42.302734375,37.80419921875,42.936279296875,34.76171875,43.894287109375,31.79833984375C45.253173828125,27.593505859375,46.436767578125,23.325927734375,48.313232421875,19.303955078125C48.6845703125,18.50830078125,49.060791015625,17.713623046875,49.579345703125,16.968017578125C50.291015625,17.817138671875,50.79541015625,18.77685546875,51.3271484375,19.717529296875C54.9228515625,26.080810546875,57.91357421875,32.728515625,60.59619140625,39.518310546875C61.35546875,41.43994140625,61.910888671875,43.43408203125,62.513671875,45.41015625C62.71337890625,46.06494140625,62.722900390625,46.059814453125,63.346923828125,45.892333984375C63.70458984375,45.796630859375,64.068359375,45.72314453125,64.421630859375,45.613525390625C64.609130859375,45.55517578125,64.839111328125,45.55029296875,64.98046875,45.288818359375C64.53125,45.168212890625,64.13232421875,45.38818359375,63.722900390625,45.390869140625C63.591064453125,45.3916015625,63.457763671875,45.421630859375,63.32763671875,45.449951171875C63.04443359375,45.511474609375,62.929931640625,45.399169921875,62.887451171875,45.114501953125C62.83740234375,44.7802734375,62.729248046875,44.455078125,62.623046875,44.0341796875C68.170654296875,42.592041015625,73.68212890625,42.58984375,79.255615234375,44.030517578125C79.132568359375,44.542724609375,79.02587890625,44.98486328125,78.914794921875,45.446533203125C78.244384765625,45.507080078125,77.60986328125,45.22021484375,76.92529296875,45.251953125C76.980712890625,45.490478515625,77.1484375,45.499755859375,77.296630859375,45.556884765625C77.8095703125,45.754150390625,78.363037109375,45.796630859375,78.87646484375,46.0048828125C79.160400390625,46.1201171875,79.240478515625,45.82666015625,79.30615234375,45.618896484375C79.59130859375,44.712158203125,79.876220703125,43.80517578125,80.14697265625,42.893798828125C81.2255859375,39.260009765625,82.793212890625,35.819580078125,84.2900390625,32.349609375C85.85400390625,28.723876953125,87.61669921875,25.194580078125,89.441162109375,21.697509765625C90.238037109375,20.169677734375,91.07177734375,18.650390625,92.086669921875,17.245849609375C92.145751953125,17.1640625,92.18408203125,17.059326171875,92.34814453125,17.025390625C92.83203125,17.721435546875,93.1943359375,18.500244140625,93.558837890625,19.2763671875C95.044921875,22.439208984375,96.089111328125,25.763671875,97.13671875,29.086669921875C98.017578125,31.88134765625,98.919677734375,34.669677734375,99.520263671875,37.543701171875C100.025146484375,39.960205078125,100.602294921875,42.3662109375,100.8828125,44.82080078125C101.1689453125,47.3232421875,101.42529296875,49.8359375,101.343994140625,52.360107421875C101.239013671875,55.6220703125,101.076171875,58.882080078125,100.453125,62.09814453125C100.419189453125,62.272705078125,100.371337890625,62.444580078125,100.324951171875,62.6162109375C100.318603515625,62.639404296875,100.2822265625,62.654541015625,100.243408203125,62.68701171875C99.85302734375,62.0341796875,99.525634765625,61.33935546875,98.9423828125,60.75634765625C98.84619140625,61.017578125,98.97509765625,61.15087890625,99.0517578125,61.301025390625C100.157470703125,63.47265625,100.942626953125,65.75146484375,101.359375,68.156494140625C101.65478515625,69.860107421875,101.853271484375,71.56982421875,101.904052734375,73.30126953125C101.97998046875,75.896728515625,101.574462890625,78.431884765625,101.04736328125,80.959716796875Z" style="fill: rgb(42, 42, 43);"/></g></g><g id="shape-8dbb55f2-fd12-80b2-8006-9991e39b4eba"><g class="fills" id="fills-8dbb55f2-fd12-80b2-8006-9991e39b4eba"><path d="M96.94140625,48.3310546875C96.7880859375,46.1953125,96.58251953125,44.061767578125,96.350830078125,41.931396484375C96.12841796875,39.861083984375,95.907958984375,37.792724609375,95.6015625,35.735595703125C95.13623046875,32.616943359375,94.439208984375,29.54541015625,93.516357421875,26.53125C93.22119140625,25.5673828125,92.965087890625,24.58447265625,92.512939453125,23.674560546875C92.454833984375,23.556884765625,92.404541015625,23.418701171875,92.238037109375,23.414794921875C92.0625,23.4091796875,92.029052734375,23.564208984375,91.974609375,23.67822265625C91.890625,23.85205078125,91.8251953125,24.03515625,91.756103515625,24.21630859375C89.02978515625,31.359619140625,86.50927734375,38.581298828125,83.87451171875,45.760009765625C83.6318359375,46.42529296875,83.474609375,47.1279296875,83.093505859375,47.74462890625C83.14208984375,47.93310546875,83.29541015625,48.026611328125,83.443115234375,48.12744140625C85.257568359375,49.38330078125,87.06787109375,50.64453125,88.884033203125,51.896240234375C91.490478515625,53.695556640625,93.998046875,55.618408203125,96.281494140625,57.8212890625C96.3896484375,57.926025390625,96.48486328125,58.054931640625,96.65869140625,57.980224609375C96.81396484375,57.9130859375,96.842041015625,57.76708984375,96.87548828125,57.614013671875C97.107421875,56.543212890625,97.062255859375,55.448486328125,97.125732421875,54.366455078125C97.243896484375,52.35205078125,97.0869140625,50.33984375,96.94140625,48.3310546875Z" style="fill: rgb(255, 0, 42);"/></g></g><g id="shape-8dbb55f2-fd12-80b2-8006-9991e39b90ea"><g class="fills" id="fills-8dbb55f2-fd12-80b2-8006-9991e39b90ea"><path d="M58.54541015625,47.264404296875C57.2392578125,43.654296875,55.94091796875,40.04248046875,54.6328125,36.430908203125C53.143798828125,32.318115234375,51.66552734375,28.2001953125,50.088623046875,24.119140625C49.991455078125,23.864990234375,50.002685546875,23.42041015625,49.638427734375,23.43896484375C49.31884765625,23.455810546875,49.2666015625,23.866943359375,49.16748046875,24.135986328125C48.4482421875,26.08837890625,47.885498046875,28.091552734375,47.396240234375,30.114990234375C46.788818359375,32.630126953125,46.31982421875,35.17138671875,46.0302734375,37.744384765625C45.837890625,39.45947265625,45.606201171875,41.169189453125,45.4267578125,42.886474609375C45.2734375,44.3662109375,45.181884765625,45.853515625,45.041748046875,47.33544921875C44.862060546875,49.22265625,44.800537109375,51.113525390625,44.804443359375,53.00634765625C44.804443359375,53.839599609375,44.78369140625,54.6767578125,44.81201171875,55.510009765625C44.83447265625,56.1640625,44.9072265625,56.816162109375,44.98193359375,57.46630859375C45.00439453125,57.66064453125,45.010009765625,57.9052734375,45.256591796875,57.98583984375C45.475341796875,58.060546875,45.572509765625,57.8662109375,45.69384765625,57.74462890625C46.418701171875,57.01220703125,47.20556640625,56.34521484375,47.991943359375,55.679931640625C51.2001953125,52.967041015625,54.761474609375,50.74169921875,58.180908203125,48.318115234375C58.775390625,47.897705078125,58.779052734375,47.91455078125,58.54541015625,47.264404296875Z" style="fill: rgb(255, 0, 42);"/></g></g><g id="shape-8dbb55f2-fd12-80b2-8006-9991e39b90eb"><g class="fills" id="fills-8dbb55f2-fd12-80b2-8006-9991e39b90eb"><path d="M95.900634765625,42.895751953125C95.405517578125,42.921875,95.098876953125,42.619140625,95,42.045654296875C94.916015625,41.569091796875,95.127197265625,41.270263671875,95.695068359375,41.098388671875C95.765869140625,41.71875,95.8330078125,42.30517578125,95.900634765625,42.895751953125Z" style="fill: rgb(232, 193, 82);"/></g></g><g id="shape-8dbb55f2-fd12-80b2-8006-9991e39b90ec"><g class="fills" id="fills-8dbb55f2-fd12-80b2-8006-9991e39b90ec"><path d="M95.343505859375,38.06005859375C94.839111328125,38.035888671875,94.450439453125,37.6806640625,94.3681640625,37.191162109375C94.27294921875,36.63623046875,94.435302734375,36.38037109375,95.074462890625,36.139404296875C95.16796875,36.800537109375,95.25390625,37.428466796875,95.343505859375,38.06005859375Z" style="fill: rgb(232, 193, 82);"/></g></g><g id="shape-8dbb55f2-fd12-80b2-8006-9991e39b90ed"><g class="fills" id="fills-8dbb55f2-fd12-80b2-8006-9991e39b90ed"><path d="M94.527099609375,32.8994140625C93.656494140625,32.480712890625,93.475341796875,31.65673828125,94.1181640625,31.017822265625C94.256103515625,31.651123046875,94.38525390625,32.24169921875,94.527099609375,32.8994140625Z" style="fill: rgb(232, 193, 82);"/></g></g><g id="shape-8dbb55f2-fd12-80b2-8006-9991e39b90ee"><g class="fills" id="fills-8dbb55f2-fd12-80b2-8006-9991e39b90ee"><path d="M47.760498046875,31.03076171875C48.43505859375,31.61181640625,48.246337890625,32.519775390625,47.3662109375,32.876708984375C47.5009765625,32.247314453125,47.627685546875,31.651123046875,47.760498046875,31.03076171875Z" style="fill: rgb(232, 193, 82);"/></g></g><g id="shape-8dbb55f2-fd12-80b2-8006-9991e39bcf6a"><g class="fills" id="fills-8dbb55f2-fd12-80b2-8006-9991e39bcf6a"><path d="M46.79443359375,36.18212890625C47.30615234375,36.27001953125,47.556884765625,36.5224609375,47.566162109375,36.940673828125C47.577392578125,37.4619140625,47.20361328125,37.925537109375,46.57958984375,38.09912109375C46.57763671875,37.4267578125,46.74609375,36.811767578125,46.79443359375,36.18212890625Z" style="fill: rgb(232, 193, 82);"/></g></g><g id="shape-8dbb55f2-fd12-80b2-8006-9991e39bcf6b"><g class="fills" id="fills-8dbb55f2-fd12-80b2-8006-9991e39bcf6b"><path d="M46.176025390625,41.150390625C46.654296875,41.178466796875,46.919677734375,41.468017578125,46.895263671875,41.912841796875C46.861572265625,42.542724609375,46.53271484375,42.918212890625,45.99462890625,42.906982421875C46.0546875,42.3203125,46.1142578125,41.7353515625,46.176025390625,41.150390625Z" style="fill: rgb(232, 193, 82);"/></g></g><g id="shape-8dbb55f2-fd12-80b2-8006-9991e39c0b67"><g class="fills" id="fills-8dbb55f2-fd12-80b2-8006-9991e39c0b67"><path d="M83.094482421875,47.744873046875C83.474365234375,47.12744140625,83.631591796875,46.42529296875,83.875732421875,45.760009765625C86.509765625,38.58154296875,89.029052734375,31.360595703125,91.755615234375,24.2158203125C91.82470703125,24.03515625,91.89111328125,23.85302734375,91.973876953125,23.6787109375C92.028564453125,23.56396484375,92.062255859375,23.40966796875,92.23779296875,23.41455078125C92.4033203125,23.418701171875,92.45458984375,23.557861328125,92.512939453125,23.675048828125C92.96533203125,24.585205078125,93.2197265625,25.56689453125,93.51513671875,26.531005859375C94.43896484375,29.546630859375,95.13671875,32.6171875,95.6005859375,35.7353515625C95.90673828125,37.792724609375,96.127197265625,39.86279296875,96.351318359375,41.931640625C96.58203125,44.0625,96.787109375,46.195556640625,96.94140625,48.33203125C97.08642578125,50.339599609375,97.24267578125,52.35302734375,97.125244140625,54.366455078125C97.062255859375,55.44921875,97.107666015625,56.54345703125,96.87548828125,57.614990234375C96.842529296875,57.76708984375,96.813720703125,57.91259765625,96.6591796875,57.980224609375C96.484375,58.056396484375,96.390380859375,57.92626953125,96.281005859375,57.82080078125C93.997314453125,55.619140625,91.49072265625,53.69580078125,88.884033203125,51.897216796875C87.068359375,50.644287109375,85.257568359375,49.38427734375,83.443359375,48.128662109375C83.29638671875,48.02587890625,83.141845703125,47.933349609375,83.094482421875,47.744873046875ZM92.237548828125,24.178955078125C89.467529296875,32.141845703125,86.551025390625,39.92041015625,83.755859375,47.709716796875C88.073974609375,50.781494140625,92.624267578125,53.47412109375,96.364013671875,57.254150390625C96.85595703125,56.058837890625,96.557861328125,46.88037109375,95.927490234375,43.49609375C95.116943359375,43.426513671875,94.709716796875,43.0859375,94.557373046875,42.34912109375C94.382080078125,41.500732421875,94.60791015625,41.13232421875,95.642333984375,40.612548828125C95.563720703125,39.932861328125,95.48388671875,39.241943359375,95.405029296875,38.55859375C94.349853515625,38.305908203125,93.9521484375,37.930419921875,93.91259765625,37.165771484375C93.867919921875,36.300537109375,94.04833984375,36.053466796875,95.01806640625,35.70166015625C94.888671875,34.95361328125,94.757080078125,34.195068359375,94.627197265625,33.436279296875C94.6005859375,33.2802734375,94.4814453125,33.284423828125,94.36279296875,33.25341796875C93.7421875,33.08984375,93.416259765625,32.647705078125,93.332763671875,32.04248046875C93.262451171875,31.53369140625,93.376708984375,31.05615234375,93.842529296875,30.751220703125C94,30.648193359375,94.029052734375,30.539794921875,93.98876953125,30.37890625C93.47314453125,28.33203125,92.940185546875,26.2900390625,92.237548828125,24.178955078125ZM95.074951171875,36.138671875C94.435546875,36.381103515625,94.2734375,36.636474609375,94.36767578125,37.191650390625C94.4501953125,37.680419921875,94.838623046875,38.035400390625,95.343017578125,38.06005859375C95.2548828125,37.427734375,95.167236328125,36.80029296875,95.074951171875,36.138671875ZM95.69482421875,41.09765625C95.127197265625,41.27001953125,94.916259765625,41.569580078125,94.999267578125,42.044677734375C95.099853515625,42.61962890625,95.405517578125,42.92236328125,95.901123046875,42.8955078125C95.833740234375,42.30615234375,95.76611328125,41.71875,95.69482421875,41.09765625ZM94.528076171875,32.898681640625C94.38525390625,32.24169921875,94.256591796875,31.652099609375,94.11865234375,31.0166015625C93.474365234375,31.65673828125,93.656494140625,32.480712890625,94.528076171875,32.898681640625Z" style="fill: rgb(42, 42, 43);"/></g></g><g id="shape-8dbb55f2-fd12-80b2-8006-9991e39c6745"><g class="fills" id="fills-8dbb55f2-fd12-80b2-8006-9991e39c6745"><path d="M44.805419921875,53.005615234375C44.80029296875,51.1142578125,44.86181640625,49.2216796875,45.041748046875,47.335205078125C45.18310546875,45.85302734375,45.273681640625,44.3662109375,45.427490234375,42.8857421875C45.605712890625,41.16943359375,45.837646484375,39.458984375,46.0302734375,37.744384765625C46.319580078125,35.1708984375,46.788330078125,32.62939453125,47.396728515625,30.1142578125C47.885986328125,28.091796875,48.447021484375,26.08935546875,49.167724609375,24.13525390625C49.266845703125,23.8662109375,49.31982421875,23.454833984375,49.637939453125,23.438720703125C50.00244140625,23.420654296875,49.990966796875,23.86474609375,50.089111328125,24.118896484375C51.66650390625,28.199951171875,53.14404296875,32.317626953125,54.633056640625,36.43115234375C55.939697265625,40.041015625,57.239501953125,43.654052734375,58.544921875,47.2646484375C58.77978515625,47.913818359375,58.774658203125,47.896240234375,58.180908203125,48.3173828125C54.762451171875,50.740478515625,51.200927734375,52.9658203125,47.991943359375,55.679443359375C47.205322265625,56.3447265625,46.41943359375,57.010986328125,45.693359375,57.744140625C45.572998046875,57.865966796875,45.475830078125,58.059326171875,45.255615234375,57.98583984375C45.009765625,57.90380859375,45.003662109375,57.659912109375,44.9814453125,57.4658203125C44.9072265625,56.8154296875,44.834228515625,56.16259765625,44.811767578125,55.5087890625C44.78369140625,54.67578125,44.805419921875,53.84033203125,44.805419921875,53.005615234375ZM58.135009765625,47.712646484375C55.3291015625,39.898193359375,52.41259765625,32.12744140625,49.649658203125,24.17236328125C48.9306640625,26.37255859375,48.35546875,28.487548828125,47.852294921875,30.62939453125C48.514404296875,30.958740234375,48.646728515625,31.531005859375,48.53662109375,32.154541015625C48.4375,32.71630859375,48.1015625,33.139892578125,47.501953125,33.25244140625C47.25146484375,33.299560546875,47.250244140625,33.478271484375,47.220947265625,33.643310546875C47.0986328125,34.329833984375,46.987548828125,35.0185546875,46.872802734375,35.703857421875C47.77001953125,36.030029296875,48.0595703125,36.382568359375,48.009521484375,37.077392578125C47.950927734375,37.898193359375,47.52294921875,38.32080078125,46.49169921875,38.5576171875C46.4072265625,39.252685546875,46.321533203125,39.95654296875,46.23681640625,40.653564453125C47.09521484375,40.9541015625,47.428955078125,41.353759765625,47.38720703125,42.006103515625C47.328857421875,42.9169921875,46.919921875,43.35107421875,45.908447265625,43.528564453125C45.53076171875,48.0771484375,44.93994140625,52.629150390625,45.451171875,57.31787109375C49.26123046875,53.4853515625,53.81005859375,50.776611328125,58.135009765625,47.712646484375ZM46.57958984375,38.10009765625C47.20458984375,37.925537109375,47.578125,37.463134765625,47.566650390625,36.9404296875C47.557373046875,36.523193359375,47.305908203125,36.269287109375,46.79443359375,36.181884765625C46.7451171875,36.811767578125,46.57763671875,37.42724609375,46.57958984375,38.10009765625ZM45.9951171875,42.906982421875C46.532470703125,42.91796875,46.862548828125,42.54248046875,46.8955078125,41.912841796875C46.918701171875,41.4677734375,46.654296875,41.179443359375,46.17529296875,41.15087890625C46.115234375,41.735107421875,46.05517578125,42.320068359375,45.9951171875,42.906982421875ZM47.76025390625,31.031494140625C47.62841796875,31.650634765625,47.501220703125,32.24755859375,47.366943359375,32.876953125C48.24560546875,32.52099609375,48.43505859375,31.612060546875,47.76025390625,31.031494140625Z" style="fill: rgb(42, 42, 43);"/></g></g><g id="shape-8dbb55f2-fd12-80b2-8006-9991e39c856c"><g class="fills" id="fills-8dbb55f2-fd12-80b2-8006-9991e39c856c"><path d="M96.328369140625,71.51171875C94.654296875,73.05322265625,92.68115234375,73.899658203125,90.41259765625,74.035888671875C88.865478515625,74.12939453125,87.314697265625,74.142333984375,85.769287109375,74.295654296875C83.614990234375,74.510498046875,81.781982421875,75.40771484375,80.27392578125,76.907958984375C78.753173828125,78.419677734375,77.661865234375,80.226318359375,76.970703125,82.266845703125C76.52392578125,83.582275390625,76.27001953125,84.934814453125,76.07177734375,86.302734375C75.943115234375,87.214599609375,75.783935546875,88.122802734375,75.87939453125,89.05126953125C75.894287109375,89.202392578125,75.859130859375,89.359619140625,76.05126953125,89.409912109375C76.22509765625,89.45458984375,76.335205078125,89.338623046875,76.425048828125,89.217529296875C76.6513671875,88.912841796875,76.955810546875,88.7001953125,77.258544921875,88.4814453125C78.343994140625,87.7001953125,79.560302734375,87.17724609375,80.7861328125,86.6689453125C82.5107421875,85.953369140625,84.341796875,85.603759765625,86.11865234375,85.06396484375C88.828125,84.239990234375,91.259033203125,82.90966796875,93.295654296875,80.9365234375C95.11181640625,79.18017578125,96.165771484375,76.98095703125,96.787841796875,74.550048828125C97.111083984375,73.284912109375,97.333740234375,72.0107421875,97.368896484375,70.642822265625C96.92626953125,70.863525390625,96.64794921875,71.216552734375,96.328369140625,71.51171875ZM78.2880859375,86.005615234375C78.16455078125,86.102783203125,78.074951171875,86.362548828125,77.817138671875,86.171875C77.55908203125,85.979736328125,77.785400390625,85.826171875,77.83935546875,85.671142578125C78.515869140625,83.70751953125,79.48193359375,81.876220703125,80.55224609375,80.110595703125C81.85107421875,77.97314453125,83.866943359375,76.823974609375,86.255126953125,76.289306640625C87.5498046875,75.999755859375,88.870849609375,76.108154296875,90.178955078125,76.19580078125C91.9765625,76.3154296875,93.600341796875,75.865234375,95.074462890625,74.8447265625C95.11181640625,74.81884765625,95.153076171875,74.800048828125,95.194091796875,74.784912109375C95.22021484375,74.775634765625,95.252197265625,74.779296875,95.380859375,74.77001953125C94.999755859375,75.900390625,94.5830078125,76.94873046875,93.940185546875,77.903564453125C92.550048828125,79.96630859375,90.5078125,81.123046875,88.276611328125,82.017822265625C86.546630859375,82.712890625,84.71337890625,83.060546875,82.92724609375,83.56689453125C81.2236328125,84.05126953125,79.683837890625,84.9033203125,78.2880859375,86.005615234375Z" style="fill: rgb(255, 0, 42);"/></g></g><g id="shape-8dbb55f2-fd12-80b2-8006-9991e39cf83b"><g class="fills" id="fills-8dbb55f2-fd12-80b2-8006-9991e39cf83b"><path d="M66.034423828125,89.05517578125C66.021240234375,88.446044921875,66.049072265625,87.8388671875,65.9541015625,87.227783203125C65.697998046875,85.583740234375,65.48291015625,83.935546875,64.94873046875,82.347412109375C64.248291015625,80.26220703125,63.13427734375,78.41796875,61.58544921875,76.868896484375C59.582275390625,74.8642578125,57.050537109375,74.18212890625,54.288818359375,74.138916015625C52.97900390625,74.118408203125,51.661865234375,74.118408203125,50.364990234375,73.903564453125C48.3095703125,73.565185546875,46.59423828125,72.5712890625,45.129638671875,71.11376953125C44.959716796875,70.945556640625,44.8232421875,70.70849609375,44.4794921875,70.678466796875C44.526123046875,70.9267578125,44.59521484375,71.11181640625,44.59130859375,71.296875C44.569091796875,72.36767578125,44.8173828125,73.395263671875,45.069580078125,74.421142578125C45.800048828125,77.386474609375,47.19970703125,79.93701171875,49.632568359375,81.861572265625C51.64697265625,83.455322265625,53.896484375,84.580322265625,56.3720703125,85.238037109375C58.472412109375,85.796875,60.57421875,86.3369140625,62.5419921875,87.289794921875C63.62939453125,87.816650390625,64.70751953125,88.364013671875,65.533447265625,89.28515625C65.63623046875,89.401123046875,65.748291015625,89.4404296875,65.888427734375,89.3935546875C66.056640625,89.33544921875,66.036376953125,89.187744140625,66.034423828125,89.05517578125ZM63.941650390625,86.263427734375C63.61279296875,86.018798828125,63.2802734375,85.772216796875,62.945556640625,85.52734375C61.193115234375,84.24755859375,59.195556640625,83.561767578125,57.10302734375,83.08349609375C55.111083984375,82.627685546875,53.194091796875,81.966064453125,51.390869140625,80.970458984375C49.14501953125,79.727783203125,47.60888671875,77.9208984375,46.7626953125,75.5107421875C46.682373046875,75.28271484375,46.60400390625,75.054931640625,46.53125,74.84375C46.682373046875,74.709228515625,46.764892578125,74.813720703125,46.839599609375,74.8681640625C48.616455078125,76.14990234375,50.623046875,76.34033203125,52.725341796875,76.15185546875C55.68505859375,75.886474609375,58.250732421875,76.770263671875,60.389892578125,78.849853515625C60.692626953125,79.141357421875,60.959716796875,79.466552734375,61.1728515625,79.8251953125C62.2958984375,81.73681640625,63.351318359375,83.679931640625,64.104248046875,85.7744140625C64.182861328125,85.99267578125,64.16796875,86.14208984375,63.941650390625,86.263427734375Z" style="fill: rgb(255, 0, 42);"/></g></g><g id="shape-8dbb55f2-fd12-80b2-8006-9991e39cf83c"><g class="fills" id="fills-8dbb55f2-fd12-80b2-8006-9991e39cf83c"><path d="M70.9208984375,93.2978515625C71.9560546875,93.36572265625,72.969970703125,93.491455078125,73.941650390625,93.857666015625C74.8720703125,94.20849609375,75.35400390625,95.040771484375,75.082275390625,95.842529296875C74.962158203125,96.197021484375,74.7431640625,96.471923828125,74.396484375,96.6259765625C74.179443359375,96.722412109375,73.9580078125,96.812744140625,73.731201171875,96.881591796875C72.823974609375,97.15771484375,71.990478515625,97.57470703125,71.25927734375,98.179443359375C71.031494140625,98.367919921875,70.8359375,98.362548828125,70.62548828125,98.181884765625C69.841796875,97.509521484375,68.917724609375,97.111083984375,67.94482421875,96.80712890625C67.477294921875,96.661376953125,67.063232421875,96.451416015625,66.85205078125,95.9658203125C66.5,95.156982421875,66.9580078125,94.240478515625,67.9169921875,93.868408203125C68.884765625,93.492919921875,69.901123046875,93.37158203125,70.9208984375,93.2978515625Z" style="fill: rgb(255, 0, 42);"/></g></g><g id="shape-8dbb55f2-fd12-80b2-8006-9991e39d1162"><g class="fills" id="fills-8dbb55f2-fd12-80b2-8006-9991e39d1162"><path d="M50.931396484375,59.576171875C50.9052734375,58.686279296875,51.353759765625,57.947265625,51.83154296875,57.2373046875C52.96533203125,55.55419921875,54.04833984375,55.240966796875,57.335693359375,55.605224609375C57.2958984375,55.32373046875,57.25927734375,55.052001953125,57.21923828125,54.780517578125C56.866943359375,52.3828125,58.51220703125,51,60.677734375,51.2666015625C62.517333984375,51.4931640625,63.99365234375,52.37841796875,65.0361328125,53.921875C65.599853515625,54.75634765625,65.796875,55.69677734375,65.5732421875,56.688232421875C65.413330078125,57.396484375,64.943359375,57.85986328125,64.256103515625,58.085205078125C63.255615234375,58.4130859375,62.244873046875,58.340576171875,61.461669921875,57.6640625C60.831298828125,57.119384765625,60.1650390625,56.96484375,59.40966796875,56.922607421875C59.188232421875,56.91015625,58.98388671875,56.76416015625,58.714111328125,56.85986328125C59.013671875,57.2822265625,59.376708984375,57.63134765625,59.724853515625,57.992431640625C60.35693359375,58.648193359375,61.045654296875,59.257568359375,61.6171875,59.9619140625C63.345947265625,62.092529296875,63.8154296875,64.475830078125,62.85302734375,67.0791015625C62.483154296875,68.07958984375,62.5849609375,68.97412109375,63.153076171875,69.881103515625C63.71044921875,70.770263671875,64.314453125,71.61474609375,65.017578125,72.390625C65.184814453125,72.5751953125,65.346435546875,72.764892578125,65.512451171875,72.95458984375C65.333740234375,73.120849609375,65.23583984375,72.982666015625,65.139404296875,72.9150390625C63.843017578125,72.0078125,62.847412109375,70.836181640625,62.1025390625,69.445556640625C61.6796875,68.656494140625,61.819580078125,67.860595703125,62.07275390625,67.061279296875C62.323486328125,66.269287109375,62.631591796875,65.49267578125,62.641357421875,64.64013671875C62.6591796875,63.05517578125,62.05078125,61.705322265625,61.069091796875,60.512939453125C60.301025390625,59.579833984375,59.478759765625,58.69140625,58.681640625,57.781982421875C58.583251953125,57.669677734375,58.463134765625,57.56494140625,58.4013671875,57.43408203125C57.837890625,56.23876953125,56.697998046875,56.123291015625,55.6171875,56.041259765625C53.29150390625,55.86474609375,51.6376953125,57.193115234375,51.127197265625,59.531005859375C51.121826171875,59.555419921875,51.08935546875,59.573974609375,51.06982421875,59.594970703125C51.023681640625,59.588623046875,50.9775390625,59.58251953125,50.931396484375,59.576171875ZM61.415771484375,56.8671875C61.978271484375,57.392333984375,62.650390625,57.6796875,63.378662109375,57.70654296875C64.271484375,57.739501953125,64.980224609375,57.30078125,65.162841796875,56.539794921875C65.383544921875,55.6201171875,65.1650390625,54.7705078125,64.6142578125,54.01171875C63.7236328125,52.784423828125,62.48486328125,52.061767578125,61.034912109375,51.7548828125C60.132568359375,51.56396484375,59.221923828125,51.669189453125,58.468017578125,52.328369140625C57.474609375,53.196533203125,57.62353515625,54.718505859375,57.984619140625,55.694580078125C58.00732421875,55.755615234375,58.07470703125,55.8232421875,58.1357421875,55.843017578125C58.74951171875,56.0400390625,59.38037109375,56.13671875,60.044677734375,56.189208984375C59.49609375,54.6728515625,59.591552734375,53.982421875,60.371337890625,53.635986328125C61.127197265625,53.30029296875,62.165771484375,53.68310546875,62.601318359375,54.457763671875C63.09521484375,55.338134765625,62.810546875,55.917236328125,61.415771484375,56.8671875ZM60.154052734375,54.779052734375C60.167724609375,55.250732421875,60.64306640625,56.113037109375,60.888427734375,56.1123046875C61.42529296875,56.110595703125,62.269287109375,55.4345703125,62.265869140625,55.0087890625C62.261962890625,54.48681640625,61.59375,53.950439453125,60.96044921875,53.96044921875C60.48046875,53.968017578125,60.140625,54.313232421875,60.154052734375,54.779052734375Z" style="fill: rgb(255, 0, 42);"/></g></g><g id="shape-8dbb55f2-fd12-80b2-8006-9991e39d6f02"><g class="fills" id="fills-8dbb55f2-fd12-80b2-8006-9991e39d6f02"><path d="M84.503173828125,55.633544921875C86.3779296875,55.254150390625,88.166015625,55.084716796875,89.575439453125,56.646240234375C90.3291015625,57.481201171875,90.9091796875,58.411376953125,90.975341796875,59.69189453125C90.731689453125,59.507080078125,90.741943359375,59.32666015625,90.686767578125,59.173583984375C90.15771484375,57.70751953125,89.31884765625,56.493408203125,87.725341796875,56.0947265625C86.51953125,55.792724609375,85.333984375,56.12744140625,84.183349609375,56.521728515625C84.1220703125,56.542724609375,84.0703125,56.615234375,84.031005859375,56.6748046875C83.209228515625,57.93115234375,82.14697265625,58.986328125,81.1552734375,60.099609375C80.150390625,61.2275390625,79.46240234375,62.50048828125,79.2587890625,64.01708984375C79.1416015625,64.888671875,79.375,65.69873046875,79.636474609375,66.508056640625C79.828369140625,67.10205078125,80.044677734375,67.68603515625,80.038330078125,68.328369140625C80.03369140625,68.757568359375,79.95166015625,69.15380859375,79.745361328125,69.527587890625C79.006103515625,70.8662109375,78.04052734375,72.006103515625,76.7890625,72.89453125C76.7060546875,72.953857421875,76.61083984375,72.996826171875,76.517822265625,73.040283203125C76.498291015625,73.04931640625,76.463623046875,73.02587890625,76.42626953125,73.014404296875C76.391357421875,72.799560546875,76.57373046875,72.711181640625,76.687255859375,72.59033203125C77.537353515625,71.683349609375,78.265625,70.693115234375,78.88427734375,69.610107421875C79.31689453125,68.853515625,79.385986328125,68.113525390625,79.114990234375,67.302734375C78.87060546875,66.57080078125,78.65234375,65.83251953125,78.576904296875,65.05517578125C78.416748046875,63.404541015625,78.930419921875,61.941650390625,79.801025390625,60.58251953125C80.451171875,59.5673828125,81.38623046875,58.80224609375,82.20947265625,57.93994140625C82.535400390625,57.5986328125,82.887939453125,57.27978515625,83.209228515625,56.80517578125C82.5107421875,56.8984375,81.906494140625,57.04833984375,81.2841796875,57.018798828125C81.13134765625,57.01171875,81.053955078125,57.19287109375,80.94580078125,57.29052734375C79.989013671875,58.156494140625,78.90087890625,58.479736328125,77.643798828125,58.087158203125C76.79052734375,57.82080078125,76.279296875,57.10595703125,76.25439453125,56.216796875C76.192138671875,54.006591796875,77.526611328125,52.75146484375,79.29443359375,51.833251953125C80.341796875,51.289306640625,81.465087890625,51.0244140625,82.656494140625,51.35791015625C83.9443359375,51.718505859375,84.6748046875,52.675537109375,84.6884765625,54.014404296875C84.6923828125,54.53759765625,84.689697265625,55.057373046875,84.503173828125,55.633544921875ZM81.85693359375,56.17724609375C82.071044921875,56.242919921875,82.266845703125,56.12841796875,82.472412109375,56.11181640625C83.9033203125,55.994873046875,84.14306640625,55.7275390625,84.150146484375,54.278564453125C84.150390625,54.2041015625,84.150146484375,54.12939453125,84.149169921875,54.054931640625C84.133544921875,52.734130859375,83.210205078125,51.7978515625,81.896484375,51.707275390625C80.6201171875,51.619384765625,79.53076171875,52.085693359375,78.52685546875,52.7890625C77.519775390625,53.4951171875,76.763916015625,54.39306640625,76.64892578125,55.68701171875C76.587890625,56.3740234375,76.710205078125,57,77.3408203125,57.407958984375C78.2177734375,57.97509765625,79.847900390625,57.6513671875,80.4443359375,56.834228515625C79.205322265625,56.130126953125,78.820068359375,55.4140625,79.226318359375,54.570556640625C79.619384765625,53.75439453125,80.645263671875,53.308349609375,81.441650390625,53.607421875C82.26513671875,53.91650390625,82.36083984375,54.508056640625,81.85693359375,56.17724609375ZM81.724365234375,54.755615234375C81.723388671875,54.2841796875,81.389892578125,53.9609375,80.90380859375,53.96044921875C80.254150390625,53.959716796875,79.66455078125,54.446533203125,79.65576171875,54.990966796875C79.648193359375,55.46240234375,80.382080078125,56.080078125,80.98779296875,56.11181640625C81.245849609375,56.125244140625,81.7255859375,55.24267578125,81.724365234375,54.755615234375Z" style="fill: rgb(255, 0, 42);"/></g></g><g id="shape-8dbb55f2-fd12-80b2-8006-9991e39d9ceb"><g class="fills" id="fills-8dbb55f2-fd12-80b2-8006-9991e39d9ceb"><path d="M75.302001953125,82.635009765625C75.1826171875,81.980224609375,75.37841796875,81.3935546875,75.489501953125,80.806396484375C76.07861328125,77.690673828125,77.5341796875,75.02734375,79.6826171875,72.706787109375C80.771484375,71.53076171875,81.958740234375,70.466552734375,83.1435546875,69.39599609375C84.6171875,68.064453125,85.87158203125,66.554931640625,86.8447265625,64.825439453125C87.367919921875,63.8955078125,87.696533203125,62.898681640625,87.649169921875,61.80126953125C87.60546875,60.78515625,87.142333984375,59.9931640625,86.380615234375,59.72314453125C85.472900390625,59.401611328125,84.508544921875,59.677490234375,83.869384765625,60.503173828125C83.013916015625,61.609130859375,82.617919921875,62.898193359375,82.5458984375,64.278076171875C82.521240234375,64.748046875,82.6572265625,65.220703125,82.87158203125,65.652099609375C83.197265625,66.30712890625,83.933349609375,66.45556640625,84.469482421875,65.967529296875C85.133544921875,65.36328125,85.556884765625,64.619140625,85.623046875,63.715576171875C85.6787109375,62.96240234375,85.349365234375,62.39306640625,84.676025390625,62.030029296875C84.55322265625,61.964111328125,84.373046875,61.9248046875,84.421142578125,61.720947265625C84.468017578125,61.522216796875,84.63134765625,61.5009765625,84.8037109375,61.484375C85.169677734375,61.44921875,85.47900390625,61.5595703125,85.74267578125,61.811767578125C86.352783203125,62.394287109375,86.5869140625,63.116455078125,86.4228515625,63.928466796875C86.1611328125,65.22509765625,85.46484375,66.209716796875,84.09814453125,66.441162109375C83.264892578125,66.582275390625,82.7412109375,66.353515625,82.421875,65.61376953125C82.046630859375,64.744384765625,81.989990234375,63.857666015625,82.176025390625,62.94775390625C82.423583984375,61.73681640625,82.786865234375,60.569580078125,83.7421875,59.706298828125C84.62646484375,58.907470703125,85.6328125,58.69482421875,86.762451171875,59.158935546875C87.807373046875,59.588134765625,88.17138671875,60.48681640625,88.34814453125,61.482421875C88.646484375,63.1640625,88.0927734375,64.66552734375,87.218994140625,66.0576171875C86.22412109375,67.64208984375,84.884521484375,68.911865234375,83.438720703125,70.087646484375C81.462890625,71.694091796875,79.639892578125,73.457763671875,78.228515625,75.5986328125C77.294677734375,77.01611328125,76.7734375,78.624755859375,76.173583984375,80.196044921875C75.91357421875,80.876220703125,75.699951171875,81.569580078125,75.5439453125,82.280029296875C75.514892578125,82.41259765625,75.5078125,82.5439453125,75.302001953125,82.635009765625Z" style="fill: rgb(255, 0, 42);"/></g></g><g id="shape-8dbb55f2-fd12-80b2-8006-9991e39d9cec"><g class="fills" id="fills-8dbb55f2-fd12-80b2-8006-9991e39d9cec"><path d="M66.5263671875,82.62890625C66.36181640625,82.47802734375,66.35400390625,82.29638671875,66.304931640625,82.1298828125C65.423583984375,79.166748046875,64.4619140625,76.242919921875,62.359375,73.860107421875C60.95263671875,72.265869140625,59.38330078125,70.85009765625,57.751953125,69.48876953125C56.114013671875,68.121826171875,54.67529296875,66.566162109375,53.901123046875,64.52099609375C53.43115234375,63.27978515625,53.285888671875,62.017822265625,53.74365234375,60.724609375C54.36279296875,58.9755859375,56.351806640625,58.359375,57.85888671875,59.465087890625C58.958251953125,60.271484375,59.368408203125,61.46630859375,59.66650390625,62.710693359375C59.87353515625,63.57373046875,59.8603515625,64.43212890625,59.596435546875,65.305908203125C59.242919921875,66.47509765625,58.212890625,66.6865234375,57.294677734375,66.3232421875C56.0234375,65.820556640625,55.2158203125,64.298583984375,55.475830078125,62.96435546875C55.641357421875,62.11572265625,56.374267578125,61.441650390625,57.0732421875,61.482666015625C57.25244140625,61.493408203125,57.410400390625,61.529296875,57.46728515625,61.709716796875C57.529541015625,61.9091796875,57.34423828125,61.9501953125,57.22216796875,62.024169921875C56.372802734375,62.539306640625,56.10791015625,63.208984375,56.342529296875,64.187744140625C56.49658203125,64.831298828125,56.826171875,65.3720703125,57.274658203125,65.84130859375C57.931396484375,66.529052734375,58.820556640625,66.32470703125,59.123291015625,65.42333984375C59.361083984375,64.715576171875,59.3994140625,63.991455078125,59.224853515625,63.266357421875C58.95751953125,62.15869140625,58.626708984375,61.0732421875,57.77685546875,60.2470703125C57.190185546875,59.6767578125,56.498046875,59.464111328125,55.68505859375,59.68017578125C55.072265625,59.842529296875,54.680419921875,60.213623046875,54.454345703125,60.8017578125C53.94384765625,62.130126953125,54.30859375,63.366455078125,54.9033203125,64.5390625C55.886962890625,66.478515625,57.28466796875,68.107666015625,58.91064453125,69.5390625C60.6396484375,71.0615234375,62.303466796875,72.6455078125,63.679931640625,74.502685546875C65.170654296875,76.513916015625,66.055908203125,78.782470703125,66.483642578125,81.238525390625C66.537353515625,81.54541015625,66.598388671875,81.85107421875,66.642333984375,82.158935546875C66.6640625,82.312744140625,66.7275390625,82.485595703125,66.5263671875,82.62890625Z" style="fill: rgb(255, 0, 42);"/></g></g><g id="shape-8dbb55f2-fd12-80b2-8006-9991e39df3db"><g class="fills" id="fills-8dbb55f2-fd12-80b2-8006-9991e39df3db"><path d="M68.70751953125,69.79052734375C68.653564453125,69.172607421875,68.634521484375,68.552490234375,68.51513671875,67.941162109375C68.3212890625,66.9482421875,67.7900390625,66.128662109375,67.18408203125,65.347412109375C66.3623046875,64.2880859375,65.43212890625,63.30810546875,64.81689453125,62.096923828125C64.614501953125,61.6982421875,64.420654296875,61.297607421875,64.28466796875,60.870361328125C63.971923828125,59.888427734375,64.246826171875,59.07470703125,65.013427734375,58.423583984375C65.83056640625,57.7294921875,66.814208984375,57.3291015625,67.78466796875,56.90869140625C68.5849609375,56.561767578125,68.83984375,56.03173828125,68.646484375,55.19189453125C68.520751953125,54.64599609375,68.292236328125,54.141357421875,67.982421875,53.68798828125C66.673828125,51.775634765625,64.94921875,50.38037109375,62.754150390625,49.59716796875C62.007080078125,49.33056640625,61.236328125,49.33203125,60.461181640625,49.451171875C60.330322265625,49.47119140625,60.19775390625,49.506591796875,60.00146484375,49.40380859375C60.346923828125,49.12451171875,60.740478515625,49.095458984375,61.110595703125,49.03662109375C62.216552734375,48.86083984375,63.23681640625,49.1728515625,64.211181640625,49.6533203125C65.99853515625,50.534423828125,67.501220703125,51.758056640625,68.58544921875,53.4462890625C69.01318359375,54.11279296875,69.326416015625,54.83154296875,69.36279296875,55.65283203125C69.399169921875,56.47900390625,69.0341796875,57.056884765625,68.348876953125,57.454833984375C67.7177734375,57.8212890625,67.06640625,58.153564453125,66.43505859375,58.51953125C64.808349609375,59.46240234375,64.629638671875,60.083251953125,65.458740234375,61.74755859375C65.907470703125,62.648681640625,66.51611328125,63.43994140625,67.111083984375,64.242919921875C67.84130859375,65.228759765625,68.49560546875,66.261962890625,68.679443359375,67.505126953125C68.791259765625,68.259521484375,68.8876953125,69.022216796875,68.70751953125,69.79052734375Z" style="fill: rgb(255, 0, 42);"/></g></g><g id="shape-8dbb55f2-fd12-80b2-8006-9991e39df3dc"><g class="fills" id="fills-8dbb55f2-fd12-80b2-8006-9991e39df3dc"><path d="M73.17041015625,69.8720703125C72.920654296875,67.873291015625,73.363037109375,66.166259765625,74.490966796875,64.633056640625C75.240966796875,63.61279296875,76.0439453125,62.62890625,76.571044921875,61.45947265625C77.173095703125,60.123779296875,76.998291015625,59.4658203125,75.74609375,58.6962890625C75.125,58.314697265625,74.48046875,57.969970703125,73.834228515625,57.6318359375C72.637939453125,57.005859375,72.265380859375,56.150634765625,72.6591796875,54.85400390625C73.12451171875,53.32177734375,74.134765625,52.180419921875,75.331298828125,51.18115234375C76.49853515625,50.206298828125,77.774169921875,49.42822265625,79.27880859375,49.084716796875C80.10009765625,48.8974609375,80.90185546875,49.00439453125,81.69287109375,49.247802734375C81.748779296875,49.26513671875,81.8349609375,49.306396484375,81.825439453125,49.405517578125C81.773681640625,49.515869140625,81.669677734375,49.486083984375,81.592529296875,49.47021484375C80.066162109375,49.155029296875,78.697265625,49.596435546875,77.4248046875,50.3857421875C75.806640625,51.38916015625,74.3876953125,52.604736328125,73.543212890625,54.367919921875C73.421630859375,54.621337890625,73.319580078125,54.888671875,73.24658203125,55.15966796875C73.024658203125,55.984619140625,73.298583984375,56.562255859375,74.084228515625,56.8974609375C74.89404296875,57.242919921875,75.69873046875,57.59814453125,76.433349609375,58.086181640625C77.73193359375,58.94921875,78.021240234375,59.966552734375,77.412841796875,61.40283203125C76.8154296875,62.8125,75.856689453125,63.9794921875,74.876953125,65.121826171875C73.749267578125,66.436767578125,73.162353515625,67.920166015625,73.2373046875,69.6572265625C73.239013671875,69.6982421875,73.212646484375,69.739990234375,73.17041015625,69.8720703125Z" style="fill: rgb(255, 0, 42);"/></g></g><g id="shape-8dbb55f2-fd12-80b2-8006-9991e39e3b98"><g class="fills" id="fills-8dbb55f2-fd12-80b2-8006-9991e39e3b98"><path d="M57.25048828125,87.061767578125C57.162841796875,87.150390625,57.0859375,87.08837890625,57.007080078125,87.049560546875C55.68994140625,86.397705078125,54.328857421875,86.51611328125,52.94970703125,86.794921875C51.7412109375,87.039306640625,50.540771484375,87.335205078125,49.2890625,87.302734375C46.57373046875,87.232666015625,44.341064453125,85.74609375,43.39990234375,83.322265625C43.122802734375,82.6083984375,42.979248046875,81.864013671875,43.15380859375,81.09130859375C43.442138671875,79.816650390625,44.477294921875,79.22705078125,45.7255859375,79.66552734375C46.96142578125,80.099853515625,47.6689453125,81.0224609375,47.90771484375,82.27978515625C48.103515625,83.308837890625,47.19384765625,84.12158203125,46.166748046875,83.887939453125C45.89453125,83.826171875,45.6767578125,83.668212890625,45.532958984375,83.4267578125C45.4404296875,83.271484375,45.3623046875,83.10302734375,45.497314453125,82.92724609375C45.64599609375,82.733642578125,45.79150390625,82.88330078125,45.933349609375,82.93798828125C46.552978515625,83.176025390625,47.103759765625,82.81884765625,47.119140625,82.16650390625C47.143310546875,81.131591796875,46.175048828125,80.0478515625,45.145751953125,79.95751953125C44.218017578125,79.87646484375,43.532958984375,80.53466796875,43.544677734375,81.568359375C43.562744140625,83.133056640625,44.291015625,84.36181640625,45.47314453125,85.334228515625C46.756591796875,86.389892578125,48.279541015625,86.58935546875,49.8623046875,86.443115234375C51.342041015625,86.30615234375,52.789306640625,85.8935546875,54.294677734375,85.952392578125C55.30419921875,85.991943359375,56.215576171875,86.310791015625,57.08447265625,86.791259765625C57.186279296875,86.84765625,57.302001953125,86.90771484375,57.25048828125,87.061767578125Z" style="fill: rgb(255, 0, 42);"/></g></g><g id="shape-8dbb55f2-fd12-80b2-8006-9991e39e3b99"><g class="fills" id="fills-8dbb55f2-fd12-80b2-8006-9991e39e3b99"><path d="M84.62646484375,87.066650390625C84.61279296875,86.852294921875,84.792236328125,86.80712890625,84.924560546875,86.729248046875C86.201416015625,85.9755859375,87.5859375,85.86474609375,89.027099609375,86.0029296875C90.388916015625,86.133056640625,91.713623046875,86.536376953125,93.102294921875,86.48388671875C95.535888671875,86.391845703125,97.5009765625,84.9736328125,98.16357421875,82.795166015625C98.31884765625,82.284423828125,98.34912109375,81.768798828125,98.304443359375,81.2490234375C98.2236328125,80.314453125,97.3828125,79.761962890625,96.47119140625,80.021728515625C95.451416015625,80.3125,94.779541015625,81.180419921875,94.7978515625,82.183349609375C94.8095703125,82.82275390625,95.3271484375,83.169677734375,95.931884765625,82.9482421875C96.08447265625,82.892333984375,96.263427734375,82.707275390625,96.3935546875,82.953369140625C96.5009765625,83.156005859375,96.428955078125,83.361083984375,96.284423828125,83.53369140625C95.927978515625,83.960205078125,95.445556640625,83.9921875,94.971923828125,83.8662109375C94.452880859375,83.727783203125,94.0810546875,83.3857421875,94.001708984375,82.8154296875C93.816650390625,81.489013671875,95.0087890625,79.877197265625,96.37548828125,79.599609375C97.859130859375,79.2978515625,98.895751953125,80.264404296875,98.787841796875,81.849365234375C98.625244140625,84.2470703125,96.800537109375,86.38720703125,94.399169921875,87.03466796875C92.887451171875,87.4423828125,91.39208984375,87.311767578125,89.888427734375,86.99951171875C88.97314453125,86.8095703125,88.064697265625,86.5771484375,87.116943359375,86.5673828125C86.388916015625,86.559814453125,85.70068359375,86.688232421875,85.03759765625,86.982177734375C84.912353515625,87.037841796875,84.795166015625,87.170654296875,84.62646484375,87.066650390625Z" style="fill: rgb(255, 0, 42);"/></g></g><g id="shape-8dbb55f2-fd12-80b2-8006-9991e39e71d2"><g class="fills" id="fills-8dbb55f2-fd12-80b2-8006-9991e39e71d2"><path d="M57.828125,72.09423828125C57.64111328125,72.185302734375,57.56884765625,72.121826171875,57.503173828125,72.066162109375C56.671142578125,71.36083984375,55.712158203125,70.83203125,54.85400390625,70.165283203125C53.433837890625,69.061767578125,52.28515625,67.7626953125,51.93310546875,65.921630859375C51.849609375,65.48583984375,51.713623046875,65.053955078125,51.86376953125,64.6015625C51.92236328125,64.42578125,52.01171875,64.296630859375,52.19775390625,64.298828125C52.387451171875,64.30126953125,52.46923828125,64.4345703125,52.51171875,64.61669921875C52.626220703125,65.107666015625,52.735107421875,65.6015625,52.8876953125,66.0810546875C53.435546875,67.801513671875,54.562255859375,69.10986328125,55.890380859375,70.27880859375C56.545654296875,70.855712890625,57.166259765625,71.4716796875,57.828125,72.09423828125Z" style="fill: rgb(255, 0, 42);"/></g></g><g id="shape-8dbb55f2-fd12-80b2-8006-9991e39e71d3"><g class="fills" id="fills-8dbb55f2-fd12-80b2-8006-9991e39e71d3"><path d="M84.070556640625,72.098876953125C84.629638671875,71.5654296875,85.16796875,71.045166015625,85.713623046875,70.532470703125C86.2783203125,70.002197265625,86.868408203125,69.50048828125,87.379638671875,68.91162109375C88.421875,67.711181640625,89.05126953125,66.322509765625,89.34130859375,64.771240234375C89.384765625,64.5400390625,89.421630859375,64.287841796875,89.70947265625,64.304443359375C90.011474609375,64.322021484375,90.062744140625,64.588134765625,90.062255859375,64.83740234375C90.058349609375,66.2294921875,89.600830078125,67.463134765625,88.72119140625,68.534423828125C88.11328125,69.2744140625,87.42333984375,69.92822265625,86.623291015625,70.46728515625C85.871337890625,70.973876953125,85.142333984375,71.514892578125,84.403076171875,72.041015625C84.3232421875,72.097412109375,84.260498046875,72.204345703125,84.070556640625,72.098876953125Z" style="fill: rgb(255, 0, 42);"/></g></g><g id="shape-8dbb55f2-fd12-80b2-8006-9991e39e71d4"><g class="fills" id="fills-8dbb55f2-fd12-80b2-8006-9991e39e71d4"><path d="M47.6162109375,84.1328125C48.1357421875,84.412841796875,48.624755859375,84.68212890625,49.20166015625,84.809814453125C50.16259765625,85.02197265625,51.087890625,84.90087890625,52.015380859375,84.656494140625C52.2236328125,84.601806640625,52.455810546875,84.55029296875,52.5537109375,84.80419921875C52.65966796875,85.078857421875,52.484619140625,85.25830078125,52.25244140625,85.373046875C51.020751953125,85.98193359375,48.501708984375,85.368408203125,47.661376953125,84.2568359375C47.635498046875,84.22314453125,47.63037109375,84.174560546875,47.6162109375,84.1328125Z" style="fill: rgb(255, 0, 42);"/></g></g><g id="shape-8dbb55f2-fd12-80b2-8006-9991e39eaeb6"><g class="fills" id="fills-8dbb55f2-fd12-80b2-8006-9991e39eaeb6"><path d="M94.299072265625,84.111083984375C94.088623046875,84.486572265625,93.773193359375,84.6904296875,93.464599609375,84.882080078125C92.336181640625,85.58251953125,91.12841796875,85.80615234375,89.8310546875,85.435546875C89.666259765625,85.388427734375,89.520751953125,85.329345703125,89.4130859375,85.19873046875C89.3095703125,85.073486328125,89.288818359375,84.926025390625,89.3515625,84.778076171875C89.424560546875,84.607421875,89.582275390625,84.597412109375,89.73291015625,84.624755859375C89.951416015625,84.66455078125,90.164794921875,84.7314453125,90.382568359375,84.776123046875C91.7265625,85.0517578125,93.01513671875,85.015625,94.145263671875,84.09814453125C94.160400390625,84.08544921875,94.198974609375,84.101318359375,94.299072265625,84.111083984375Z" style="fill: rgb(255, 0, 42);"/></g></g><g id="shape-8dbb55f2-fd12-80b2-8006-9991e39eaeb7"><g class="fills" id="fills-8dbb55f2-fd12-80b2-8006-9991e39eaeb7"><path d="M71.0048828125,66.611328125C70.71533203125,66.502197265625,70.811767578125,66.302001953125,70.77099609375,66.158447265625C70.421142578125,64.916748046875,69.925537109375,63.74560546875,69.13671875,62.712158203125C69,62.533203125,68.863525390625,62.35986328125,68.666259765625,62.241455078125C68.385986328125,62.072998046875,68.399658203125,61.873291015625,68.61962890625,61.6630859375C69.80419921875,60.52978515625,70.362060546875,59.09619140625,70.61181640625,57.514404296875C70.623291015625,57.44140625,70.643798828125,57.36962890625,70.663818359375,57.29833984375C70.710693359375,57.13232421875,70.708740234375,56.909912109375,70.967041015625,56.93994140625C71.16796875,56.963134765625,71.197021484375,57.140380859375,71.2333984375,57.3046875C71.345703125,57.812255859375,71.45361328125,58.321044921875,71.58251953125,58.823974609375C71.85546875,59.889404296875,72.415771484375,60.79736328125,73.17919921875,61.574462890625C73.466064453125,61.866943359375,73.490234375,62.02783203125,73.14697265625,62.312255859375C72.466796875,62.8759765625,72.102294921875,63.67724609375,71.72265625,64.454345703125C71.39208984375,65.13037109375,71.216552734375,65.864013671875,71.0048828125,66.611328125Z" style="fill: rgb(255, 0, 42);"/></g></g><g id="shape-8dbb55f2-fd12-80b2-8006-9991e39eaeb8"><g class="fills" id="fills-8dbb55f2-fd12-80b2-8006-9991e39eaeb8"><path d="M48.334228515625,70.344970703125C48.296630859375,70.666259765625,48.12548828125,70.869873046875,47.796875,70.888916015625C47.467529296875,70.907958984375,47.183837890625,70.5830078125,47.217529296875,70.240478515625C47.247802734375,69.931396484375,47.419677734375,69.74853515625,47.739501953125,69.75244140625C48.0771484375,69.756591796875,48.34619140625,70.034912109375,48.334228515625,70.344970703125Z" style="fill: rgb(255, 0, 42);"/></g></g><g id="shape-8dbb55f2-fd12-80b2-8006-9991e39ee1b8"><g class="fills" id="fills-8dbb55f2-fd12-80b2-8006-9991e39ee1b8"><path d="M93.556396484375,70.327392578125C93.55859375,70.01806640625,93.836669921875,69.743896484375,94.165283203125,69.751708984375C94.5166015625,69.760009765625,94.6552734375,69.9755859375,94.65283203125,70.306884765625C94.649658203125,70.667236328125,94.443115234375,70.850830078125,94.110595703125,70.886962890625C93.80615234375,70.920166015625,93.553955078125,70.6484375,93.556396484375,70.327392578125Z" style="fill: rgb(255, 0, 42);"/></g></g><g id="shape-8dbb55f2-fd12-80b2-8006-9991e39ee1b9"><g class="fills" id="fills-8dbb55f2-fd12-80b2-8006-9991e39ee1b9"><path d="M95.194091796875,74.785400390625C95.153076171875,74.80029296875,95.11181640625,74.819091796875,95.074462890625,74.845458984375C93.600341796875,75.86572265625,91.9765625,76.31591796875,90.178955078125,76.1962890625C88.87109375,76.1083984375,87.550048828125,76,86.255126953125,76.289794921875C83.8671875,76.824462890625,81.85107421875,77.9736328125,80.55224609375,80.111083984375C79.481689453125,81.876708984375,78.515625,83.7080078125,77.83935546875,85.671630859375C77.785400390625,85.82666015625,77.55908203125,85.97998046875,77.817138671875,86.172607421875C78.074951171875,86.36328125,78.16455078125,86.103271484375,78.2880859375,86.006103515625C79.683837890625,84.90380859375,81.2236328125,84.0517578125,82.92724609375,83.567626953125C84.713623046875,83.0615234375,86.546630859375,82.713623046875,88.276611328125,82.018798828125C90.5078125,81.123779296875,92.550048828125,79.967041015625,93.940185546875,77.904296875C94.5830078125,76.94970703125,94.999755859375,75.9013671875,95.380859375,74.77099609375C95.252197265625,74.77978515625,95.220458984375,74.77587890625,95.194091796875,74.785400390625ZM93.43603515625,77.631103515625C91.763671875,79.7666015625,89.450439453125,80.8916015625,86.965576171875,81.747314453125C85.68359375,82.1865234375,84.355224609375,82.453857421875,83.0546875,82.827392578125C81.35986328125,83.31689453125,79.809326171875,84.08837890625,78.49560546875,85.2919921875C78.456298828125,85.327392578125,78.409423828125,85.357177734375,78.2919921875,85.445068359375C78.856201171875,84.08837890625,79.46533203125,82.859130859375,80.205078125,81.689453125C80.904052734375,80.587158203125,81.612060546875,79.5087890625,82.67724609375,78.71484375C84.44482421875,77.397216796875,86.38623046875,76.655517578125,88.62841796875,76.7919921875C89.549560546875,76.847900390625,90.478271484375,76.8310546875,91.403076171875,76.82958984375C92.496337890625,76.825927734375,93.469970703125,76.433349609375,94.3779296875,75.85791015625C94.439453125,75.818603515625,94.503173828125,75.78515625,94.64697265625,75.70263671875C94.321533203125,76.46533203125,93.889892578125,77.0517578125,93.43603515625,77.631103515625Z" style="fill: rgb(42, 42, 43);"/></g></g><g id="shape-8dbb55f2-fd12-80b2-8006-9991e39f2766"><g class="fills" id="fills-8dbb55f2-fd12-80b2-8006-9991e39f2766"><path d="M64.104248046875,85.774169921875C63.351318359375,83.679443359375,62.29541015625,81.736328125,61.1728515625,79.824951171875C60.959716796875,79.46630859375,60.692626953125,79.14111328125,60.389892578125,78.849609375C58.25048828125,76.77001953125,55.68505859375,75.88623046875,52.725341796875,76.151611328125C50.62353515625,76.34033203125,48.61669921875,76.149658203125,46.839599609375,74.867919921875C46.764892578125,74.8134765625,46.682373046875,74.708984375,46.53125,74.843505859375C46.60400390625,75.054443359375,46.682373046875,75.282470703125,46.7626953125,75.510498046875C47.609130859375,77.920654296875,49.14501953125,79.7275390625,51.390869140625,80.97021484375C53.194091796875,81.966064453125,55.111083984375,82.62744140625,57.10302734375,83.083251953125C59.195556640625,83.5615234375,61.193115234375,84.247314453125,62.945556640625,85.527099609375C63.2802734375,85.77197265625,63.612548828125,86.0185546875,63.941650390625,86.26318359375C64.16796875,86.14208984375,64.182861328125,85.99267578125,64.104248046875,85.774169921875ZM62.764404296875,84.75927734375C61.275390625,83.64208984375,59.58984375,82.96923828125,57.784912109375,82.547119140625C55.518310546875,82.0166015625,53.311767578125,81.317626953125,51.2919921875,80.114501953125C49.5263671875,79.0625,48.22021484375,77.593994140625,47.2841796875,75.7626953125C48.39208984375,76.489501953125,49.59375,76.87255859375,50.910888671875,76.859375C51.701416015625,76.853759765625,52.49365234375,76.8369140625,53.281982421875,76.7978515625C56.150146484375,76.650390625,58.51025390625,77.75634765625,60.380615234375,79.845458984375C61.492431640625,81.088134765625,62.30517578125,82.56396484375,62.99072265625,84.09423828125C63.170166015625,84.494140625,63.422607421875,84.865966796875,63.536376953125,85.39111328125C63.237060546875,85.146240234375,63.00927734375,84.9423828125,62.764404296875,84.75927734375Z" style="fill: rgb(42, 42, 43);"/></g></g></g></g></g></g></g></g></g></svg>